{
  "accessors": [
    {
      "bufferView": 2,
      "componentType": 5126,
      "count": 920,
      "max": [
        6.0324687957763672,
        1.0507960319519043,
        9.5459709167480469
      ],
      "min": [
        -6.0324687957763672,
        -2.8025550842285156,
        -0.16990600526332855
      ],
      "type": "VEC3"
    },
    {
      "bufferView": 2,
      "byteOffset": 11040,
      "componentType": 5126,
      "count": 920,
      "max": [
        0.99179649353027344,
        1,
        0.99989891052246094
      ],
      "min": [
        -0.99179649353027344,
        -1,
        -0.99859422445297241
      ],
      "type": "VEC3"
    },
    {
      "bufferView": 3,
      "componentType": 5126,
      "count": 920,
      "max": [
        1,
        0.98109638690948486,
        0.99983346462249756,
        1
      ],
      "min": [
        -1,
        -0.99989891052246094,
        -1,
        -1
      ],
      "type": "VEC4"
    },
    {
      "bufferView": 1,
      "componentType": 5126,
      "count": 920,
      "max": [
        0.99188202619552612,
        0.9930419921875
      ],
      "min": [
        0.012633999809622765,
        0.0095210000872612
      ],
      "type": "VEC2"
    },
    {
      "bufferView": 0,
      "componentType": 5125,
      "count": 4260,
      "max": [
        919
      ],
      "min": [
        0
      ],
      "type": "SCALAR"
    },
    {
      "bufferView": 2,
      "byteOffset": 22080,
      "componentType": 5126,
      "count": 114,
      "max": [
        1.0954899787902832,
        -0.48476698994636536,
        5.8122000694274902
      ],
      "min": [
        -1.0954899787902832,
        -1.3061200380325317,
        4.5286059379577637
      ],
      "type": "VEC3"
    },
    {
      "bufferView": 2,
      "byteOffset": 23448,
      "componentType": 5126,
      "count": 114,
      "max": [
        0.99545902013778687,
        0.50269222259521484,
        0.99538946151733398
      ],
      "min": [
        -0.99545902013778687,
        -0.98617678880691528,
        -0.89409112930297852
      ],
      "type": "VEC3"
    },
    {
      "bufferView": 3,
      "byteOffset": 14720,
      "componentType": 5126,
      "count": 114,
      "max": [
        0.99396628141403198,
        0.63329583406448364,
        0.51145899295806885,
        1
      ],
      "min": [
        -0.99396628141403198,
        -0.99561172723770142,
        -0.5503159761428833,
        -1
      ],
      "type": "VEC4"
    },
    {
      "bufferView": 1,
      "byteOffset": 7360,
      "componentType": 5126,
      "count": 114,
      "max": [
        -0.059813998639583588,
        0.99279797077178955
      ],
      "min": [
        -0.9387819766998291,
        0.75994902849197388
      ],
      "type": "VEC2"
    },
    {
      "bufferView": 0,
      "byteOffset": 17040,
      "componentType": 5125,
      "count": 552,
      "max": [
        113
      ],
      "min": [
        0
      ],
      "type": "SCALAR"
    }
  ],
  "asset": {
    "extras": {
      "author": "Frédéric Cambon (https://sketchfab.com/tribble42)",
      "license": "CC-BY-4.0 (http://creativecommons.org/licenses/by/4.0/)",
      "source": "https://sketchfab.com/models/6f7ebd5eb90e47ffbdf6e628f6877bf6",
      "title": "Butterfree"
    },
    "generator": "Sketchfab-3.47.7",
    "version": "2.0"
  },
  "bufferViews": [
    {
      "buffer": 0,
      "byteLength": 19248,
      "byteOffset": 0,
      "name": "floatBufferViews",
      "target": 34963
    },
    {
      "buffer": 0,
      "byteLength": 8272,
      "byteOffset": 19248,
      "byteStride": 8,
      "name": "floatBufferViews",
      "target": 34962
    },
    {
      "buffer": 0,
      "byteLength": 24816,
      "byteOffset": 27520,
      "byteStride": 12,
      "name": "floatBufferViews",
      "target": 34962
    },
    {
      "buffer": 0,
      "byteLength": 16544,
      "byteOffset": 52336,
      "byteStride": 16,
      "name": "floatBufferViews",
      "target": 34962
    }
  ],
  "buffers": [
    {
      "byteLength": 68880,
      "uri": "scene.bin"
    }
  ],
  "extensionsUsed": [
    "KHR_materials_unlit"
  ],
  "images": [
    {
      "uri": "textures/mat2_baseColor.png"
    },
    {
      "uri": "textures/mat1_baseColor.png"
    }
  ],
  "materials": [
    {
      "doubleSided": true,
      "emissiveFactor": [
        0,
        0,
        0
      ],
      "extensions": {
        "KHR_materials_unlit": {}
      },
      "name": "mat1",
      "pbrMetallicRoughness": {
        "baseColorFactor": [
          1,
          1,
          1,
          1
        ],
        "baseColorTexture": {
          "index": 1,
          "texCoord": 0
        },
        "metallicFactor": 0,
        "roughnessFactor": 1
      }
    },
    {
      "doubleSided": true,
      "emissiveFactor": [
        0,
        0,
        0
      ],
      "extensions": {
        "KHR_materials_unlit": {}
      },
      "name": "mat2",
      "pbrMetallicRoughness": {
        "baseColorFactor": [
          1,
          1,
          1,
          1
        ],
        "baseColorTexture": {
          "index": 0,
          "texCoord": 0
        },
        "metallicFactor": 0,
        "roughnessFactor": 1
      }
    }
  ],
  "meshes": [
    {
      "primitives": [
        {
          "attributes": {
            "NORMAL": 1,
            "POSITION": 0,
            "TANGENT": 2,
            "TEXCOORD_0": 3
          },
          "indices": 4,
          "material": 0,
          "mode": 4
        }
      ]
    },
    {
      "primitives": [
        {
          "attributes": {
            "NORMAL": 6,
            "POSITION": 5,
            "TANGENT": 7,
            "TEXCOORD_0": 8
          },
          "indices": 9,
          "material": 1,
          "mode": 4
        }
      ]
    }
  ],
  "nodes": [
    {
      "children": [
        1
      ],
      "name": "RootNode (gltf orientation matrix)",
      "rotation": [
        -0.70710678118654746,
        -0,
        -0,
        0.70710678118654757
      ]
    },
    {
      "children": [
        2
      ],
      "matrix": [
        0,
        1,
        0,
        0,
        -1,
        0,
        0,
        0,
        0,
        0,
        1,
        0,
        0,
        0,
        0,
        1
      ],
      "name": "RootNode (model correction matrix)"
    },
    {
      "children": [
        3,
        4
      ],
      "name": "Butterfree.obj.cleaner.materialmerger.gles"
    },
    {
      "mesh": 0,
      "name": ""
    },
    {
      "mesh": 1,
      "name": ""
    }
  ],
  "samplers": [
    {
      "magFilter": 9729,
      "minFilter": 9987,
      "wrapS": 10497,
      "wrapT": 10497
    }
  ],
  "scene": 0,
  "scenes": [
    {
      "name": "OSG_Scene",
      "nodes": [
        0
      ]
    }
  ],
  "textures": [
    {
      "sampler": 0,
      "source": 0
    },
    {
      "sampler": 0,
      "source": 1
    }
  ]
}

